<?xml version="1.0" ?><!DOCTYPE svg  PUBLIC '-//W3C//DTD SVG 1.1//EN'  'http://www.w3.org/Graphics/SVG/1.1/DTD/svg11.dtd'><svg enable-background="new 0 0 100 100" height="100px" version="1.1" viewBox="0 0 100 100" width="100px" xml:space="preserve" xmlns="http://www.w3.org/2000/svg" xmlns:xlink="http://www.w3.org/1999/xlink"><g id="Layer_1"><g><g><g><rect fill="#19486F" height="2.494" width="46" x="32.081" y="52.203"/></g><rect fill="#19486F" height="2.494" width="8" x="21.919" y="52.203"/><g><rect fill="#2E73B7" height="7" width="8" x="21.919" y="45.203"/><rect fill="#2E73B7" height="7" width="46" x="32.081" y="45.203"/></g></g><g><g><rect fill="#19486F" height="2.494" width="46" x="32.081" y="75.744"/></g><rect fill="#19486F" height="2.494" width="8" x="21.919" y="75.744"/><g><rect fill="#2E73B7" height="7" width="8" x="21.919" y="68.744"/><rect fill="#2E73B7" height="7" width="46" x="32.081" y="68.744"/></g></g><g><g><rect fill="#19486F" height="2.494" width="46" x="32.081" y="28.562"/></g><rect fill="#19486F" height="2.494" width="8" x="21.919" y="28.562"/><g><rect fill="#2E73B7" height="7" width="8" x="21.919" y="21.762"/><rect fill="#2E73B7" height="7" width="46" x="32.081" y="21.762"/></g></g><g><g><rect fill="#19486F" height="2.494" width="46" x="32.081" y="63.974"/></g><rect fill="#19486F" height="2.494" width="8" x="21.919" y="63.974"/><g><rect fill="#2E73B7" height="7" width="8" x="21.919" y="56.974"/><rect fill="#2E73B7" height="7" width="46" x="32.081" y="56.974"/></g></g><g><g><rect fill="#19486F" height="2.494" width="46" x="32.081" y="40.433"/></g><rect fill="#19486F" height="2.494" width="8" x="21.919" y="40.433"/><g><rect fill="#2E73B7" height="7" width="46" x="32.081" y="33.433"/><rect fill="#2E73B7" height="7" width="8" x="21.919" y="33.433"/></g></g></g></g></svg>