<?xml version="1.0" ?><svg id="Layer_1" style="enable-background:new 0 0 128 128;" version="1.1" viewBox="0 0 128 128" xml:space="preserve" xmlns="http://www.w3.org/2000/svg" xmlns:xlink="http://www.w3.org/1999/xlink"><style type="text/css">
	.st0{fill:#0A0A0A;}
</style><g id="Layer_1_1_"/><g><path class="st0" d="M102,1H26c-1.7,0-3,1.3-3,3v120c0,1.7,1.3,3,3,3h76c1.7,0,3-1.3,3-3V4C105,2.3,103.7,1,102,1z M103,124   c0,0.6-0.4,1-1,1H26c-0.6,0-1-0.4-1-1V4c0-0.6,0.4-1,1-1h76c0.6,0,1,0.4,1,1V124z"/><path class="st0" d="M96,8H83c0-1.7-1.3-3-3-3H48c-1.7,0-3,1.3-3,3H32c-1.7,0-3,1.3-3,3v106c0,1.7,1.3,3,3,3h64c1.7,0,3-1.3,3-3V11   C99,9.3,97.7,8,96,8z M47,8c0-0.6,0.4-1,1-1h32c0.6,0,1,0.4,1,1v2c0,0.6-0.4,1-1,1H48c-0.6,0-1-0.4-1-1V8z M97,117c0,0.6-0.4,1-1,1   H32c-0.6,0-1-0.4-1-1V11c0-0.6,0.4-1,1-1h13c0,1.7,1.3,3,3,3h32c1.7,0,3-1.3,3-3h13c0.6,0,1,0.4,1,1V117z"/><path class="st0" d="M51,27h26c0.6,0,1-0.4,1-1s-0.4-1-1-1H51c-0.6,0-1,0.4-1,1S50.4,27,51,27z"/><path class="st0" d="M86,93H60c-0.6,0-1,0.4-1,1s0.4,1,1,1h26c0.6,0,1-0.4,1-1S86.6,93,86,93z"/><path class="st0" d="M86,41H42c-0.6,0-1,0.4-1,1s0.4,1,1,1h44c0.6,0,1-0.4,1-1S86.6,41,86,41z"/><path class="st0" d="M86,54H42c-0.6,0-1,0.4-1,1s0.4,1,1,1h44c0.6,0,1-0.4,1-1S86.6,54,86,54z"/><path class="st0" d="M86,67H42c-0.6,0-1,0.4-1,1s0.4,1,1,1h44c0.6,0,1-0.4,1-1S86.6,67,86,67z"/><path class="st0" d="M86,80H42c-0.6,0-1,0.4-1,1s0.4,1,1,1h44c0.6,0,1-0.4,1-1S86.6,80,86,80z"/></g></svg>